<?xml version="1.0" encoding="UTF-8"?>
<svg id="Capa_1" xmlns="http://www.w3.org/2000/svg" version="1.1" viewBox="0 0 30 30">
  <!-- Generator: Adobe Illustrator 29.0.1, SVG Export Plug-In . SVG Version: 2.1.0 Build 192)  -->
  <path d="M27.3,12.3h-9.1c-.3,0-.5-.2-.5-.5V2.7c0-1.5-1.2-2.7-2.7-2.7s-2.7,1.2-2.7,2.7v9.1c0,.3-.2.5-.5.5H2.7c-1.5,0-2.7,1.2-2.7,2.7s1.2,2.7,2.7,2.7h9.1c.3,0,.5.2.5.5v9.1c0,1.5,1.2,2.7,2.7,2.7s2.7-1.2,2.7-2.7v-9.1c0-.3.2-.5.5-.5h9.1c1.5,0,2.7-1.2,2.7-2.7s-1.2-2.7-2.7-2.7Z"/>
</svg>