<?xml version="1.0" encoding="UTF-8"?>
<svg id="Capa_1" xmlns="http://www.w3.org/2000/svg" version="1.1" viewBox="0 0 30 30">
  <!-- Generator: Adobe Illustrator 29.0.1, SVG Export Plug-In . SVG Version: 2.1.0 Build 192)  -->
  <g id="close">
    <path d="M2.8,29.8c-.7,0-1.5-.2-2-.7-1.1-1.1-1.1-2.9,0-4L25,1c1.1-1.1,2.9-1,4,.1,1,1,1,2.6.1,3.7L4.8,29.1c-.6.5-1.3.7-2,.7h0Z"/>
    <path d="M26.9,29.8c-.7,0-1.5-.3-2-.8L.8,4.9C-.2,3.7,0,1.9,1.1.9,2.2,0,3.8,0,4.8.9l24.3,24.1c1.1,1.1,1.2,2.9.1,4,0,0,0,0-.1.1-.6.5-1.4.8-2.2.7h0Z"/>
  </g>
</svg>