<?xml version="1.0" encoding="UTF-8"?>
<svg id="Glyph" xmlns="http://www.w3.org/2000/svg" version="1.1" viewBox="0 0 30 30">
  <!-- Generator: Adobe Illustrator 29.0.1, SVG Export Plug-In . SVG Version: 2.1.0 Build 192)  -->
  <path d="M26.2,10.3l-11.7,11.7c-.4.4-.9.7-1.5.7l-4.1.4h-.2c-.5,0-.9-.2-1.2-.5-.4-.4-.5-.9-.5-1.4l.4-4.1c0-.6.3-1.1.7-1.5L19.7,3.8l6.4,6.4ZM28.9,2.1l-1-1c-1.5-1.5-3.9-1.5-5.4,0l-1.2,1.2,6.4,6.4,1.2-1.2c.7-.7,1.1-1.7,1.1-2.7s-.4-2-1.1-2.7h0ZM27.2,24.8v-8.1c0-.6-.5-1-1-1s-1,.5-1,1v8.1c0,1.7-1.4,3.1-3.1,3.1H5.2c-1.7,0-3.1-1.4-3.1-3.1V8c0-1.7,1.4-3.1,3.1-3.1h8.1c.6,0,1-.5,1-1s-.5-1-1-1H5.2C2.3,2.8,0,5.1,0,8v16.7C0,27.7,2.3,30,5.2,30h16.7c2.9,0,5.2-2.3,5.2-5.2h0Z"/>
</svg>