<?xml version="1.0" encoding="UTF-8"?>
<svg id="Layer_1" xmlns="http://www.w3.org/2000/svg" version="1.1" viewBox="0 0 30 30">
  <!-- Generator: Adobe Illustrator 29.0.1, SVG Export Plug-In . SVG Version: 2.1.0 Build 192)  -->
  <path d="M3.6,8.8l1.6,18.8c.1,1.4,1.3,2.4,2.6,2.4h14.3c1.4,0,2.5-1.1,2.6-2.4l1.6-18.8H3.6ZM10.6,26.5c-.5,0-.8-.4-.9-.8l-.9-14.2c0-.5.3-.9.8-.9.5,0,.9.3.9.8l.9,14.2c0,.5-.4.9-.9.9ZM15.9,25.6c0,.5-.4.9-.9.9s-.9-.4-.9-.9v-14.2c0-.5.4-.9.9-.9s.9.4.9.9v14.2ZM21.2,11.5l-.9,14.2c0,.5-.4.8-.9.8-.5,0-.9-.4-.8-.9l.9-14.2c0-.5.5-.8.9-.8.5,0,.9.4.8.9Z"/>
  <path d="M26.4,3.5h-5.3v-.9c0-1.5-1.2-2.6-2.6-2.6h-7c-1.5,0-2.6,1.2-2.6,2.6v.9H3.6c-1,0-1.8.8-1.8,1.8s.8,1.8,1.8,1.8h22.9c1,0,1.8-.8,1.8-1.8s-.8-1.8-1.8-1.8ZM19.4,3.5h-8.8v-.9c0-.5.4-.9.9-.9h7c.5,0,.9.4.9.9v.9Z"/>
</svg>