<?xml version="1.0" encoding="UTF-8"?>
<svg xmlns="http://www.w3.org/2000/svg" version="1.1" viewBox="0 0 40 40">
  <defs>
    <style>
      .cls-1 {
        fill: #9b9bfd;
      }

      .cls-2 {
        fill: #00005c;
      }
    </style>
  </defs>
  <!-- Generator: Adobe Illustrator 28.7.1, SVG Export Plug-In . SVG Version: 1.2.0 Build 142)  -->
  <g>
    <g id="Capa_1">
      <g id="Layer_7">
        <g>
          <path class="cls-2" d="M33.2,40H6.8c-3.7,0-6.8-3.1-6.8-6.9V6.9C0,3.1,3,0,6.8,0h26.5c3.7,0,6.8,3.1,6.8,6.9v26.1c0,3.8-3,6.9-6.8,6.9Z"/>
          <g>
            <path class="cls-1" d="M8.6,10.9c0-.1,0-.2.2-.2,1.1,0,3.1,0,5,0,5.3,0,7.4,3,7.4,6.2s-3.4,6.5-7.6,6.5-1.1,0-1.6,0v6c0,.1,0,.2-.2.2h-2.9c-.1,0-.2,0-.2-.2V10.9h0ZM11.9,20.2c.5,0,.8,0,1.6,0,2.3,0,4.3-.8,4.3-3.5s-1.4-3.3-4-3.3-1.6,0-2,0v6.7Z"/>
            <path class="cls-1" d="M26.2,15.2c.1,0,.2,0,.3.2.1.3.3,1.1.3,1.7,1-1.2,2.6-2.2,4.4-2.2s.2,0,.2.2v3c0,.1,0,.2-.2.2-1.9,0-3.5.6-4.2,1.5v9.4c0,.1,0,.2-.2.2h-2.9c-.2,0-.3,0-.3-.2v-10c0-1.4,0-2.9-.1-3.8,0-.1,0-.2.2-.2h2.6Z"/>
          </g>
        </g>
      </g>
    </g>
  </g>
</svg>