<?xml version="1.0" encoding="UTF-8"?>
<svg xmlns="http://www.w3.org/2000/svg" version="1.1" viewBox="0 0 40 40">
  <defs>
    <style>
      .cls-1 {
        fill: #ef456a;
      }

      .cls-2 {
        fill: #43091f;
      }
    </style>
  </defs>
  <!-- Generator: Adobe Illustrator 28.7.1, SVG Export Plug-In . SVG Version: 1.2.0 Build 142)  -->
  <g>
    <g id="Capa_1">
      <g id="Layer_8">
        <g>
          <path class="cls-2" d="M33.2,40H6.8c-3.7,0-6.8-3.1-6.8-6.9V6.9C0,3.1,3,0,6.8,0h26.5c3.7,0,6.8,3.1,6.8,6.9v26.1c0,3.8-3,6.9-6.8,6.9Z"/>
          <g>
            <path class="cls-1" d="M14.1,29.8c0,.2,0,.3-.2.3h-2.9c-.2,0-.2,0-.2-.3V11.5c0-.2,0-.2.2-.2h2.9c.1,0,.2,0,.2.2v18.3Z"/>
            <path class="cls-1" d="M16.9,23.1c0-4.2,3-7.5,7.8-7.5s.7,0,1.1,0v-5.8c0-.1,0-.2.2-.2h3c.1,0,.1,0,.1.1v17.4c0,.5,0,1.2,0,1.8,0,.1,0,.2-.1.2-1.7.8-3.5,1.1-5.1,1.1-4.1,0-7.1-2.4-7.1-7.2ZM25.8,18.6c-.3-.1-.7-.2-1.2-.2-2.4,0-4.2,1.7-4.2,4.5s1.8,4.5,4,4.5,1.1,0,1.5-.2v-8.6Z"/>
          </g>
        </g>
      </g>
    </g>
  </g>
</svg>