<?xml version="1.0" encoding="UTF-8"?>
<svg xmlns="http://www.w3.org/2000/svg" version="1.1" viewBox="0 0 40 40">
  <defs>
    <style>
      .cls-1 {
        fill: #ff9a00;
      }

      .cls-2 {
        fill: #320000;
      }
    </style>
  </defs>
  <!-- Generator: Adobe Illustrator 28.7.1, SVG Export Plug-In . SVG Version: 1.2.0 Build 142)  -->
  <g>
    <g id="Capa_1">
      <g id="Layer_3">
        <g>
          <path class="cls-2" d="M33.6,40H6.4c-3.8,0-6.9-3.1-6.9-6.9V6.9C-.5,3.1,2.6,0,6.4,0h27.2c3.8,0,6.9,3.1,6.9,6.9v26.1c0,3.8-3.1,6.9-6.9,6.9Z"/>
          <g>
            <path class="cls-1" d="M13.1,23.5l-1.5,4.8c0,.1-.1.2-.3.2h-2.8c-.2,0-.2,0-.2-.3l5.5-16.9c.1-.3.2-.6.2-1.5,0-.1,0-.2.2-.2h3.9c.1,0,.2,0,.2.2l6.2,18.4c0,.1,0,.2-.2.2h-3.1c-.1,0-.2,0-.3-.2l-1.6-4.9h-6.3ZM18.6,20.4c-.5-1.9-1.8-5.9-2.3-7.9h0c-.5,1.9-1.5,5.3-2.3,7.9h4.7Z"/>
            <path class="cls-1" d="M26.4,10.4c0-1.2.8-1.9,1.9-1.9s1.9.8,1.9,1.9-.8,1.9-1.9,1.9-1.9-.7-1.9-1.9ZM26.6,14.5c0-.1,0-.2.2-.2h2.9c.2,0,.2,0,.2.2v13.8c0,.2,0,.2-.2.2h-2.9c-.2,0-.3,0-.3-.2v-13.8h0Z"/>
          </g>
        </g>
      </g>
    </g>
  </g>
</svg>