<?xml version="1.0" encoding="UTF-8"?>
<svg xmlns="http://www.w3.org/2000/svg" version="1.1" viewBox="0 0 40 40">
  <defs>
    <style>
      .cls-1 {
        fill: #9a99ff;
      }

      .cls-2 {
        fill: #00005a;
      }
    </style>
  </defs>
  <!-- Generator: Adobe Illustrator 28.7.1, SVG Export Plug-In . SVG Version: 1.2.0 Build 142)  -->
  <g>
    <g id="Capa_1">
      <g id="Layer_2">
        <g>
          <path class="cls-2" d="M33.2,40H6.8C3,40,0,36.9,0,33.1V6.9C0,3.1,3,0,6.8,0h26.5c3.7,0,6.8,3.1,6.8,6.9v26.1c0,3.8-3,6.9-6.8,6.9Z"/>
          <g>
            <path class="cls-1" d="M9.8,23.5l-1.5,4.8c0,.1-.1.2-.3.2h-2.8c-.2,0-.2,0-.2-.3l5.5-16.9c.1-.3.2-.6.2-1.5,0-.1,0-.2.2-.2h3.9c.1,0,.2,0,.2.2l6.2,18.4c0,.1,0,.2-.2.2h-3.1c-.1,0-.2,0-.3-.2l-1.6-4.9h-6.3ZM15.3,20.4c-.5-1.9-1.8-5.9-2.3-7.9h0c-.5,1.9-1.5,5.3-2.3,7.9h4.7Z"/>
            <path class="cls-1" d="M25.6,22.1c0,2.2,1.3,3.7,4.2,3.7s2.2-.2,3.3-.6c.1,0,.2,0,.2.1v2.3c0,.2,0,.3-.2.3-1,.5-2.2.7-4,.7-5,0-6.8-3.5-6.8-7.2s2.3-7.5,6.4-7.5,5.6,3.3,5.6,6,0,1.5-.1,1.8c0,.1,0,.2-.2.2-.4,0-1.5.1-2.9.1h-5.3ZM29.6,19.7c1,0,1.4,0,1.5,0,0,0,0-.2,0-.3,0-.9-.5-2.7-2.6-2.7s-2.7,1.5-2.9,3h4Z"/>
          </g>
        </g>
      </g>
    </g>
  </g>
</svg>