<?xml version="1.0" encoding="UTF-8"?>
<svg xmlns="http://www.w3.org/2000/svg" version="1.1" viewBox="0 0 40 40">
  <defs>
    <style>
      .cls-1 {
        fill: #002039;
      }

      .cls-2 {
        fill: #36adfd;
      }
    </style>
  </defs>
  <!-- Generator: Adobe Illustrator 28.7.1, SVG Export Plug-In . SVG Version: 1.2.0 Build 142)  -->
  <g>
    <g id="Capa_1">
      <g id="Layer_4">
        <g>
          <path class="cls-1" d="M33.3,40H6.8C3.1,40,0,36.9,0,33V6.9C0,3.1,3.1,0,6.8,0h26.5c3.7,0,6.8,3.1,6.8,6.9v26.1c0,3.8-3,6.9-6.8,6.9Z"/>
          <g>
            <path class="cls-2" d="M8.8,9.9c0-.1,0-.2.2-.2,1.1,0,3.1,0,5,0,5.3,0,7.4,3,7.4,6.2s-3.4,6.5-7.6,6.5-1.1,0-1.6,0v6c0,.1,0,.2-.2.2h-2.9c-.1,0-.2,0-.2-.2V9.9ZM12.1,19.3c.5,0,.8,0,1.6,0,2.3,0,4.3-.8,4.3-3.5s-1.4-3.3-4-3.3-1.6,0-2,0v6.7Z"/>
            <path class="cls-2" d="M28.3,16.7c-1.5,0-2,.6-2,1.2s.4,1.1,2.2,1.9c3.1,1.2,4.1,2.5,4.1,4.5s-2.2,4.4-5.4,4.4-3-.3-3.9-.7c-.1,0-.2-.2-.2-.3v-2.7c0-.1,0-.2.2-.1,1.2.7,2.7,1.1,3.9,1.1s2.1-.5,2.1-1.3-.5-1.2-2.3-2c-2.9-1.2-3.9-2.5-3.9-4.5s1.8-4.2,5.1-4.2,2.8.2,3.4.5c.1,0,.1.2.1.3v2.5c0,.2,0,.3-.3.2-.8-.5-2.1-.8-3.3-.8Z"/>
          </g>
        </g>
      </g>
    </g>
  </g>
</svg>