<?xml version="1.0" encoding="UTF-8"?>
<svg xmlns="http://www.w3.org/2000/svg" version="1.1" viewBox="0 0 40 40">
  <defs>
    <style>
      .cls-1 {
        fill: #06b6d4;
      }
    </style>
  </defs>
  <!-- Generator: Adobe Illustrator 28.7.1, SVG Export Plug-In . SVG Version: 1.2.0 Build 142)  -->
  <g>
    <g id="Capa_1">
      <path class="cls-1" d="M20,8c-5.3,0-8.7,2.7-10,8,2-2.7,4.3-3.7,7-3,1.5.4,2.6,1.5,3.8,2.7,2,2,4.2,4.3,9.2,4.3s8.7-2.7,10-8c-2,2.7-4.3,3.7-7,3-1.5-.4-2.6-1.5-3.8-2.7-2-2-4.2-4.3-9.2-4.3h0ZM10,20C4.7,20,1.3,22.7,0,28c2-2.7,4.3-3.7,7-3,1.5.4,2.6,1.5,3.8,2.7,2,2,4.2,4.3,9.2,4.3s8.7-2.7,10-8c-2,2.7-4.3,3.7-7,3-1.5-.4-2.6-1.5-3.8-2.7-2-2-4.2-4.3-9.2-4.3h0Z"/>
    </g>
  </g>
</svg>