<?xml version="1.0" encoding="UTF-8"?>
<svg xmlns="http://www.w3.org/2000/svg" version="1.1" viewBox="0 0 40 40">
  <defs>
    <style>
      .cls-1 {
        fill: #61dafb;
      }
    </style>
  </defs>
  <!-- Generator: Adobe Illustrator 28.7.1, SVG Export Plug-In . SVG Version: 1.2.0 Build 142)  -->
  <g>
    <g id="Capa_1">
      <g>
        <path class="cls-1" d="M40,20c0-2.6-3.3-5.2-8.4-6.7,1.2-5.2.7-9.3-1.6-10.6-.5-.3-1.1-.5-1.8-.5v1.8c.4,0,.7,0,.9.2,1.1.6,1.6,3.1,1.2,6.2,0,.8-.2,1.6-.4,2.4-1.6-.4-3.3-.7-5.2-.9-1.1-1.5-2.2-2.9-3.4-4.1,2.7-2.5,5.2-3.8,6.8-3.8v-1.8c-2.2,0-5.2,1.6-8.1,4.4-3-2.8-5.9-4.3-8.1-4.3v1.8c1.7,0,4.2,1.3,6.8,3.8-1.1,1.2-2.3,2.6-3.4,4.1-1.8.2-3.6.5-5.2.9-.2-.8-.3-1.6-.4-2.4-.4-3.1,0-5.5,1.2-6.2.2-.1.6-.2.9-.2v-1.8c-.7,0-1.3.1-1.8.5-2.3,1.3-2.8,5.4-1.6,10.6C3.3,14.9,0,17.4,0,20s3.3,5.2,8.4,6.7c-1.2,5.2-.7,9.3,1.6,10.6.5.3,1.1.5,1.8.5,2.2,0,5.2-1.6,8.1-4.4,3,2.8,5.9,4.3,8.1,4.3s1.3-.1,1.8-.5c2.3-1.3,2.8-5.4,1.6-10.6,5.1-1.6,8.4-4.1,8.4-6.7h0ZM29.4,14.6c-.3,1.1-.7,2.1-1.1,3.2-.3-.7-.7-1.3-1.1-2-.4-.7-.8-1.3-1.2-1.9,1.2.2,2.3.4,3.3.6h0ZM25.7,23.2c-.6,1.1-1.3,2.1-2,3.1-1.2.1-2.4.2-3.7.2s-2.5,0-3.7-.2c-.7-1-1.3-2-2-3.1-.6-1.1-1.2-2.2-1.7-3.2.5-1.1,1.1-2.2,1.7-3.3.6-1.1,1.3-2.1,2-3.1,1.2-.1,2.4-.2,3.7-.2s2.5,0,3.7.2c.7,1,1.3,2,2,3.1.6,1.1,1.2,2.2,1.7,3.2-.5,1.1-1.1,2.2-1.7,3.3h0ZM28.3,22.2c.4,1.1.8,2.2,1.1,3.2-1.1.3-2.2.5-3.4.7.4-.6.8-1.3,1.2-1.9.4-.7.7-1.3,1.1-2h0ZM20,30.9c-.8-.8-1.5-1.7-2.3-2.6.7,0,1.5,0,2.2,0s1.5,0,2.3,0c-.7,1-1.5,1.8-2.2,2.6ZM14,26.1c-1.2-.2-2.3-.4-3.3-.6.3-1.1.7-2.1,1.1-3.2.3.7.7,1.3,1.1,2s.8,1.3,1.2,1.9ZM20,9.1c.8.8,1.5,1.7,2.3,2.6-.7,0-1.5,0-2.2,0s-1.5,0-2.3,0c.7-1,1.5-1.8,2.2-2.6ZM13.9,13.9c-.4.6-.8,1.3-1.2,1.9-.4.7-.7,1.3-1.1,2-.4-1.1-.8-2.2-1.1-3.2,1.1-.3,2.2-.5,3.4-.6h0ZM6.6,24.1c-2.9-1.2-4.8-2.8-4.8-4.1s1.9-2.9,4.8-4.1c.7-.3,1.5-.6,2.3-.8.5,1.6,1.1,3.3,1.8,5-.8,1.7-1.4,3.4-1.8,4.9-.8-.3-1.6-.5-2.3-.8h0ZM10.9,35.8c-1.1-.6-1.6-3.1-1.2-6.2,0-.8.2-1.6.4-2.4,1.6.4,3.3.7,5.2.9,1.1,1.5,2.2,2.9,3.4,4.1-2.7,2.5-5.2,3.8-6.8,3.8-.4,0-.7,0-.9-.2h0ZM30.3,29.6c.4,3.1,0,5.5-1.2,6.2-.2.1-.6.2-.9.2-1.7,0-4.2-1.3-6.8-3.8,1.1-1.2,2.3-2.6,3.4-4.1,1.8-.2,3.6-.5,5.2-.9.2.8.3,1.6.4,2.4ZM33.4,24.1c-.7.3-1.5.6-2.3.8-.5-1.6-1.1-3.3-1.8-5,.8-1.7,1.4-3.4,1.8-4.9.8.3,1.6.5,2.3.8,2.9,1.2,4.8,2.8,4.8,4.1,0,1.3-1.9,2.9-4.8,4.1h0Z"/>
        <circle class="cls-1" cx="20" cy="20" r="3.7"/>
      </g>
    </g>
  </g>
</svg>