<?xml version="1.0" encoding="UTF-8"?>
<svg xmlns="http://www.w3.org/2000/svg" version="1.1" viewBox="0 0 40 40">
  <defs>
    <style>
      .cls-1 {
        fill: #fff;
        fill-rule: evenodd;
      }

      .cls-2 {
        fill: #3178c6;
      }
    </style>
  </defs>
  <!-- Generator: Adobe Illustrator 28.7.1, SVG Export Plug-In . SVG Version: 1.2.0 Build 142)  -->
  <g>
    <g id="Capa_1">
      <rect class="cls-2" width="40" height="40" rx="1.9" ry="1.9"/>
      <path class="cls-1" d="M23.2,31.1v4.4c.7.4,1.5.6,2.5.8,1,.2,2,.3,3.1.3s2-.1,3-.3c.9-.2,1.8-.5,2.5-1,.7-.5,1.3-1.1,1.7-1.8.4-.7.6-1.7.6-2.8s-.1-1.5-.4-2.1c-.2-.6-.6-1.1-1-1.6-.4-.5-1-.9-1.6-1.3-.6-.4-1.3-.7-2.1-1-.6-.2-1.1-.5-1.5-.7-.5-.2-.8-.5-1.2-.7-.3-.2-.6-.5-.7-.7-.2-.3-.3-.6-.3-.9s0-.6.2-.8.4-.4.7-.6c.3-.2.6-.3,1-.4.4,0,.9-.1,1.4-.1s.7,0,1.2,0c.4,0,.8.1,1.2.3.4.1.8.3,1.2.4.4.2.7.4,1.1.6v-4.1c-.7-.3-1.4-.4-2.2-.6s-1.7-.2-2.7-.2-2,.1-2.9.3c-.9.2-1.7.6-2.5,1-.7.5-1.3,1.1-1.7,1.8-.4.7-.6,1.6-.6,2.6s.4,2.4,1.1,3.3c.8.9,1.9,1.7,3.4,2.3.6.2,1.2.5,1.7.7.5.2,1,.5,1.3.7s.7.5.9.8c.2.3.3.6.3,1s0,.5-.2.8-.3.5-.6.6c-.3.2-.6.3-1,.4-.4.1-.9.2-1.5.2-.9,0-1.9-.2-2.8-.5-.9-.3-1.8-.8-2.6-1.5ZM15.8,20.2h5.7v-3.6H5.6v3.6h5.7v16.1h4.5v-16.1Z"/>
    </g>
  </g>
</svg>