<?xml version="1.0" encoding="UTF-8"?>
<svg xmlns="http://www.w3.org/2000/svg" xmlns:xlink="http://www.w3.org/1999/xlink" version="1.1" viewBox="0 0 40 40">
  <defs>
    <style>
      .cls-1 {
        fill: none;
      }

      .cls-2 {
        mask: url(#mask);
      }

      .cls-3, .cls-4 {
        fill: #5fa04e;
      }

      .cls-5 {
        fill: #fff;
      }

      .cls-4, .cls-6 {
        fill-rule: evenodd;
      }

      .cls-7 {
        fill: url(#Degradado_sin_nombre);
      }

      .cls-8 {
        fill: url(#Degradado_sin_nombre_4);
      }

      .cls-9 {
        fill: url(#Degradado_sin_nombre_3);
      }

      .cls-10 {
        fill: url(#Degradado_sin_nombre_2);
      }

      .cls-6 {
        fill: #333;
      }

      .cls-11 {
        clip-path: url(#clippath);
      }
    </style>
    <clipPath id="clippath">
      <rect class="cls-1" y="7.8" width="40" height="24.5"/>
    </clipPath>
    <mask id="mask" x="0" y="7.8" width="40" height="24.5" maskUnits="userSpaceOnUse">
      <g id="mask0_337_7900">
        <path class="cls-5" d="M40,7.8H0v24.5h40V7.8Z"/>
      </g>
    </mask>
    <linearGradient id="Degradado_sin_nombre" data-name="Degradado sin nombre" x1="73.6" y1="11.2" x2="69.9" y2="3.6" gradientTransform="translate(-51.7 25.4) scale(.9 -.9)" gradientUnits="userSpaceOnUse">
      <stop offset="0" stop-color="#3f873f"/>
      <stop offset=".3" stop-color="#3f8b3d"/>
      <stop offset=".6" stop-color="#3e9638"/>
      <stop offset=".9" stop-color="#3da92e"/>
      <stop offset="1" stop-color="#3dae2b"/>
    </linearGradient>
    <linearGradient id="Degradado_sin_nombre_2" data-name="Degradado sin nombre 2" x1="71.3" y1="7.2" x2="81.8" y2="15" gradientTransform="translate(-51.7 25.4) scale(.9 -.9)" gradientUnits="userSpaceOnUse">
      <stop offset=".1" stop-color="#3f873f"/>
      <stop offset=".4" stop-color="#52a044"/>
      <stop offset=".7" stop-color="#64b749"/>
      <stop offset=".9" stop-color="#6abf4b"/>
    </linearGradient>
    <linearGradient id="Degradado_sin_nombre_3" data-name="Degradado sin nombre 3" x1="67.2" y1="13.8" x2="76.7" y2="13.8" gradientTransform="translate(-51.7 25.4) scale(.9 -.9)" gradientUnits="userSpaceOnUse">
      <stop offset="0" stop-color="#6abf4b"/>
      <stop offset=".3" stop-color="#64b749"/>
      <stop offset=".6" stop-color="#52a044"/>
      <stop offset=".9" stop-color="#3f873f"/>
    </linearGradient>
    <linearGradient id="Degradado_sin_nombre_4" data-name="Degradado sin nombre 4" x1="67.2" y1="7.8" x2="76.7" y2="7.8" gradientTransform="translate(-51.7 25.4) scale(.9 -.9)" gradientUnits="userSpaceOnUse">
      <stop offset="0" stop-color="#6abf4b"/>
      <stop offset=".3" stop-color="#64b749"/>
      <stop offset=".6" stop-color="#52a044"/>
      <stop offset=".9" stop-color="#3f873f"/>
    </linearGradient>
  </defs>
  <!-- Generator: Adobe Illustrator 28.7.1, SVG Export Plug-In . SVG Version: 1.2.0 Build 142)  -->
  <g>
    <g id="Capa_1">
      <g class="cls-11">
        <g class="cls-2">
          <g>
            <path class="cls-3" d="M19.8,32.2c-.1,0-.3,0-.4,0l-1.2-.7c-.2,0,0-.1,0-.2.2,0,.3,0,.5-.2,0,0,0,0,0,0l.9.6s0,0,.1,0l3.6-2.1s0,0,0,0v-4.2s0,0,0,0l-3.6-2.1s0,0-.1,0l-3.6,2.1s0,0,0,0v4.2s0,0,0,0l1,.6c.5.3.9,0,.9-.4v-4.1c0,0,0-.1.1-.1h.5c0,0,.1,0,.1.1v4.1c0,.7-.4,1.1-1.1,1.1s-.4,0-.8-.2l-.9-.5c-.2-.1-.4-.4-.4-.7v-4.2c0-.3.1-.5.4-.7l3.6-2.1c.2-.1.5-.1.8,0l3.6,2.1c.2.1.4.4.4.7v4.2c0,.3-.1.5-.4.7l-3.6,2.1c-.1,0-.2,0-.4,0h0Z"/>
            <path class="cls-3" d="M20.9,29.4c-1.6,0-1.9-.7-1.9-1.3s0-.1.1-.1h.5c0,0,0,0,0,0,0,.5.3.7,1.2.7s1.1-.2,1.1-.6,0-.4-1.3-.5c-1,0-1.6-.3-1.6-1.1s.6-1.2,1.6-1.2,1.7.4,1.8,1.3c0,0,0,0,0,0,0,0,0,0,0,0h-.5s0,0,0,0c-.1-.5-.4-.7-1.1-.7s-.9.3-.9.5.1.3,1.2.5c1.1.1,1.6.4,1.6,1.1s-.7,1.2-1.8,1.2h0ZM26.1,25c0,.4-.3.7-.7.7s-.7-.3-.7-.7.3-.7.7-.7.7.3.7.7ZM24.8,25c0,.3.3.6.6.6s.6-.3.6-.6-.3-.6-.6-.6-.6.3-.6.6ZM25.1,24.6h.3c0,0,.3,0,.3.2s0,.2-.1.2c.1,0,.1,0,.1.2,0,0,0,.2,0,.2h-.2s0-.2,0-.2c0,0,0,0,0,0h-.1v.3h-.2v-.8h0ZM25.3,25h.1c0,0,.1,0,.1-.1,0-.1,0-.1-.1-.1h-.1v.2s0,0,0,0Z"/>
            <path class="cls-6" d="M8.6,15.9c0-.2,0-.3-.2-.4l-3.8-2.2c0,0-.1,0-.2,0h0c0,0-.1,0-.2,0L.2,15.5c-.1,0-.2.2-.2.4v5.9c0,0,0,.2.1.2,0,0,.2,0,.2,0l2.3-1.3c.1,0,.2-.2.2-.4v-2.8c0-.2,0-.3.2-.4l1-.6c0,0,.2,0,.2,0s.2,0,.2,0l1,.6c.1,0,.2.2.2.4v2.8c0,.2,0,.3.2.4l2.3,1.3c0,0,.2,0,.2,0,0,0,.1-.1.1-.2v-5.9ZM27,7.8c0,0-.2,0-.2,0,0,0-.1.1-.1.2v5.9c0,0,0,.1,0,.1,0,0-.1,0-.2,0l-1-.6c-.1,0-.3,0-.5,0l-3.8,2.2c-.1,0-.2.2-.2.4v4.4c0,.2,0,.3.2.4l3.8,2.2c.1,0,.3,0,.5,0l3.8-2.2c.1,0,.2-.2.2-.4v-11c0-.2,0-.3-.2-.4l-2.3-1.3ZM26.7,19s0,0,0,0l-1.3.8s0,0-.1,0l-1.3-.8s0,0,0,0v-1.5s0,0,0,0l1.3-.8s0,0,.1,0l1.3.8s0,0,0,0v1.5h0ZM39.8,17.5c.1,0,.2-.2.2-.4v-1.1c0-.2,0-.3-.2-.4l-3.8-2.2c-.1,0-.3,0-.5,0l-3.8,2.2c-.1,0-.2.2-.2.4v4.4c0,.2,0,.3.2.4l3.8,2.2c.1,0,.3,0,.5,0l2.3-1.3c0,0,.1-.1.1-.2s0-.2-.1-.2l-3.9-2.2c0,0-.1-.1-.1-.2v-1.4c0,0,0-.2.1-.2l1.2-.7c0,0,.2,0,.2,0l1.2.7c0,0,.1.1.1.2v1.1c0,0,0,.2.1.2,0,0,.2,0,.2,0,0,0,2.3-1.3,2.3-1.3Z"/>
            <path class="cls-4" d="M35.7,17.3s0,0,0,0l.7.4s0,0,0,0v.9s0,0,0,0l-.7.4s0,0,0,0l-.7-.4s0,0,0,0v-.9s0,0,0,0l.7-.4h0Z"/>
            <path class="cls-7" d="M15,13.4c-.1,0-.3,0-.5,0l-3.8,2.2c-.1,0-.2.2-.2.4v4.4c0,.2,0,.3.2.4l3.8,2.2c.1,0,.3,0,.5,0l3.8-2.2c.1,0,.2-.2.2-.4v-4.4c0-.2,0-.3-.2-.4l-3.8-2.2h0Z"/>
            <path class="cls-10" d="M18.8,15.6l-3.8-2.2s0,0-.1,0l-4.3,7.3s0,.1.1.1l3.8,2.2c.1,0,.2,0,.4,0l4-7.4s0,0,0,0Z"/>
            <path class="cls-9" d="M14.4,12.6h0s0,0,0,0c0,0,0,0,0,0Z"/>
            <path class="cls-8" d="M18.8,20.8c.1,0,.2-.2.2-.3l-4.2-7.1c-.1,0-.2,0-.3,0l-3.8,2.2,4.1,7.5c0,0,.1,0,.2,0l3.8-2.2h0Z"/>
          </g>
        </g>
      </g>
    </g>
  </g>
</svg>