<?xml version="1.0" encoding="UTF-8"?>
<svg xmlns="http://www.w3.org/2000/svg" version="1.1" viewBox="0 0 40 40">
  <defs>
    <style>
      .cls-1 {
        fill: none;
      }

      .cls-2 {
        fill: #777bb3;
      }

      .cls-3 {
        clip-path: url(#clippath-1);
      }

      .cls-4 {
        clip-path: url(#clippath-2);
      }

      .cls-5 {
        fill: #fff;
      }

      .cls-6 {
        fill: url(#Degradado_sin_nombre);
      }

      .cls-7 {
        clip-path: url(#clippath);
      }
    </style>
    <clipPath id="clippath">
      <ellipse class="cls-1" cx="20" cy="20" rx="19.2" ry="10.1"/>
    </clipPath>
    <radialGradient id="Degradado_sin_nombre" data-name="Degradado sin nombre" cx="-677.6" cy="220.9" fx="-677.6" fy="220.9" r="0" gradientTransform="translate(307503 100281.2) scale(453.8 -453.8)" gradientUnits="userSpaceOnUse">
      <stop offset="0" stop-color="#aeb2d5"/>
      <stop offset=".3" stop-color="#aeb2d5"/>
      <stop offset=".8" stop-color="#484c89"/>
      <stop offset="1" stop-color="#484c89"/>
    </radialGradient>
    <clipPath id="clippath-1">
      <rect class="cls-1" x="0" y="8.7" width="40" height="22.5"/>
    </clipPath>
    <clipPath id="clippath-2">
      <rect class="cls-1" x="0" y="8.7" width="40" height="22.5"/>
    </clipPath>
  </defs>
  <!-- Generator: Adobe Illustrator 28.7.1, SVG Export Plug-In . SVG Version: 1.2.0 Build 142)  -->
  <g>
    <g id="svg3430">
      <g id="g3438">
        <g id="g3440">
          <g class="cls-7">
            <g id="g3442">
              <g id="g3448">
                <g id="g3450">
                  <path id="path3462" class="cls-6" d="M.8,20c0,5.6,8.6,10.1,19.2,10.1h0c10.6,0,19.2-4.5,19.2-10.1h0c0-5.6-8.6-10.1-19.2-10.1h0C9.4,9.9.8,14.4.8,20"/>
                </g>
              </g>
            </g>
          </g>
        </g>
        <g id="g3464">
          <g class="cls-3">
            <g id="g3466">
              <g id="g3472">
                <path id="path3474" class="cls-2" d="M20,29.4c10.2,0,18.5-4.2,18.5-9.4s-8.3-9.4-18.5-9.4S1.5,14.8,1.5,20s8.3,9.4,18.5,9.4"/>
              </g>
            </g>
          </g>
        </g>
        <g id="g3476">
          <g class="cls-4">
            <g id="g3478">
              <g id="g3484">
                <path id="path3486" d="M11.2,21.2c.8,0,1.5-.2,1.9-.5.4-.3.7-.8.8-1.6.1-.7,0-1.2-.1-1.4-.2-.3-.7-.4-1.5-.4h-1.3l-.7,3.8h1.1ZM6.9,25.9c0,0-.1,0-.2,0,0,0,0-.1,0-.2l2-10.1c0,0,.1-.2.2-.2h4.2c1.3,0,2.3.4,2.9,1.1.6.7.8,1.7.6,3,0,.5-.3,1-.5,1.4-.2.4-.6.8-.9,1.2-.5.4-1,.7-1.5.9-.6.2-1.3.3-2.1.3h-1.7l-.5,2.5c0,0-.1.2-.2.2h-2.2Z"/>
              </g>
              <g id="g3488">
                <path id="path3490" class="cls-5" d="M11.1,17.5h1.2c.9,0,1.3.2,1.4.3.2.2.2.6,0,1.2-.1.7-.4,1.2-.7,1.4-.4.3-.9.4-1.7.4h-.8l.7-3.4ZM13.1,15.1h-4.2c-.2,0-.4.1-.4.3l-2,10.1c0,.1,0,.2,0,.3,0,0,.2.2.3.2h2.2c.2,0,.4-.1.4-.3l.5-2.4h1.5c.9,0,1.6,0,2.2-.3.6-.2,1.1-.5,1.6-1,.4-.4.7-.8,1-1.2.2-.4.4-.9.5-1.5.3-1.3,0-2.4-.6-3.2-.7-.8-1.7-1.1-3.1-1.1M9.9,21.4h1.3c.9,0,1.6-.2,2-.5.4-.3.7-.9.9-1.7.1-.8,0-1.3-.2-1.6-.3-.3-.8-.5-1.7-.5h-1.5l-.8,4.2M13.1,15.5c1.3,0,2.2.3,2.8,1,.6.7.8,1.6.5,2.8,0,.5-.3.9-.5,1.4-.2.4-.5.8-.9,1.1-.4.4-.9.7-1.5.9-.5.2-1.2.3-2.1.3h-1.9l-.5,2.7h-2.2l2-10.1h4.2"/>
              </g>
              <g id="g3492">
                <path id="path3494" d="M21.6,23.2c0,0-.1,0-.2,0,0,0,0-.1,0-.2l.9-4.5c0-.4,0-.7,0-.9,0,0-.3-.2-.9-.2h-1.6l-1.1,5.6c0,0-.1.2-.2.2h-2.2c0,0-.1,0-.2,0,0,0,0-.1,0-.2l2-10.1c0,0,.1-.2.2-.2h2.2c0,0,.1,0,.2,0,0,0,0,.1,0,.2l-.5,2.4h1.7c1.3,0,2.2.2,2.7.7.5.5.7,1.2.5,2.3l-.9,4.7c0,0-.1.2-.2.2h-2.2Z"/>
              </g>
              <g id="g3496">
                <path id="path3498" class="cls-5" d="M20.4,12.4h-2.2c-.2,0-.4.1-.4.3l-2,10.1c0,.1,0,.2,0,.3s.2.2.3.2h2.2c.2,0,.4-.1.4-.3l1.1-5.5h1.4c.7,0,.8.1.8.1,0,0,0,.2,0,.7l-.9,4.5c0,.1,0,.2,0,.3s.2.2.3.2h2.2c.2,0,.4-.1.4-.3l.9-4.7c.2-1.1,0-1.9-.5-2.5-.6-.5-1.5-.8-2.8-.8h-1.4l.4-2.2c0-.1,0-.2,0-.3,0,0-.2-.2-.3-.2M20.4,12.8l-.5,2.7h1.9c1.2,0,2.1.2,2.5.6.5.4.6,1.1.4,2.1l-.9,4.7h-2.2l.9-4.5c0-.5,0-.9-.1-1-.2-.2-.5-.3-1.1-.3h-1.7l-1.1,5.8h-2.2l2-10.1h2.2"/>
              </g>
              <g id="g3500">
                <path id="path3502" d="M28.4,21.2c.8,0,1.5-.2,1.9-.5.4-.3.7-.8.8-1.6.1-.7,0-1.2-.1-1.4-.2-.3-.7-.4-1.5-.4h-1.3l-.7,3.8h1.1ZM24.1,25.9c0,0-.1,0-.2,0,0,0,0-.1,0-.2l2-10.1c0,0,.1-.2.2-.2h4.2c1.3,0,2.3.4,2.9,1.1.6.7.8,1.7.6,3,0,.5-.3,1-.5,1.4-.2.4-.6.8-.9,1.2-.5.4-1,.7-1.5.9-.6.2-1.3.3-2.1.3h-1.7l-.5,2.5c0,0-.1.2-.2.2h-2.2Z"/>
              </g>
              <g id="g3504">
                <path id="path3506" class="cls-5" d="M28.3,17.5h1.2c.9,0,1.3.2,1.4.3.2.2.2.6,0,1.2-.1.7-.4,1.2-.7,1.4-.4.3-.9.4-1.7.4h-.8l.7-3.4ZM30.3,15.1h-4.2c-.2,0-.4.1-.4.3l-2,10.1c0,.1,0,.2,0,.3,0,0,.2.2.3.2h2.2c.2,0,.4-.1.4-.3l.5-2.4h1.5c.9,0,1.6,0,2.2-.3.6-.2,1.1-.5,1.6-1,.4-.4.7-.8,1-1.2.2-.4.4-.9.5-1.5.3-1.3,0-2.4-.6-3.2-.7-.8-1.7-1.1-3.1-1.1M27.1,21.4h1.3c.9,0,1.6-.2,2-.5.4-.3.7-.9.9-1.7.1-.8,0-1.3-.2-1.6-.3-.3-.8-.5-1.7-.5h-1.5l-.8,4.2M30.3,15.5c1.3,0,2.2.3,2.8,1,.6.7.8,1.6.5,2.8,0,.5-.3.9-.5,1.4-.2.4-.5.8-.9,1.1-.4.4-.9.7-1.5.9-.5.2-1.2.3-2.1.3h-1.9l-.5,2.7h-2.2l2-10.1h4.2"/>
              </g>
            </g>
          </g>
        </g>
      </g>
    </g>
  </g>
</svg>