<?xml version="1.0" encoding="UTF-8"?>
<svg xmlns="http://www.w3.org/2000/svg" xmlns:xlink="http://www.w3.org/1999/xlink" version="1.1" viewBox="0 0 40 40">
  <defs>
    <style>
      .cls-1 {
        fill: #404040;
      }

      .cls-2 {
        fill: #f6f6f6;
      }

      .cls-3 {
        fill: url(#Gradient1);
      }
    </style>
    <linearGradient id="Gradient1" x1=".4" y1="-123.7" x2=".4" y2="-106.1" gradientTransform="translate(19.7 134.9)" gradientUnits="userSpaceOnUse">
      <stop offset=".1" stop-color="#2a4f84"/>
      <stop offset=".4" stop-color="#294e82"/>
      <stop offset="1" stop-color="#172e4e"/>
    </linearGradient>
  </defs>
  <g>
    <g id="Layer1">
      <path id="Path19" class="cls-3" d="M37.8,25.4c0,1.9-1.5,3.4-3.4,3.4H5.8c-1.9,0-3.4-1.5-3.4-3.4v-10.8c0-1.9,1.5-3.4,3.4-3.4h28.6c1.9,0,3.4,1.5,3.4,3.4v10.8Z"/>
      <path id="Path21" class="cls-2" d="M31.9,19.8c1.5.5,2.2,1.4,2.2,2.7s-.3,1.5-.9,2c-.6.5-1.5.8-2.6.8s-2.2-.3-3.2-.9c0-.3,0-.6.2-1s.3-.6.5-.8c.9.5,1.7.7,2.3.7s.6,0,.7-.2c.2-.1.3-.2.3-.4,0-.3-.3-.6-.8-.8l-.9-.4c-1.4-.5-2.1-1.3-2.1-2.5s.3-1.5.9-2c.6-.5,1.4-.9,2.4-.9s1,0,1.6.2c.6.1,1.1.5,1.5.7,0,.3,0,.7-.2,1-.1.4-.3.6-.5.8-.9-.4-1.7-.6-2.4-.6s-.4,0-.5.2c-.1.1-.2.2-.2.4,0,.3.2.5.6.6l1,.4h0Z"/>
      <path id="Path23" class="cls-2" d="M24.4,19.8c1.5.5,2.2,1.4,2.2,2.7s-.3,1.5-.9,2c-.6.5-1.5.8-2.6.8s-2.2-.3-3.2-.9c0-.3,0-.6.2-1,.1-.3.3-.6.5-.8.9.5,1.7.7,2.3.7s.6,0,.7-.2c.2-.1.3-.2.3-.4,0-.3-.3-.6-.8-.8l-.9-.4c-1.4-.5-2.1-1.3-2.1-2.5s.3-1.5.9-2c.6-.5,1.4-.9,2.4-.9s1,0,1.6.2c.6.1,1.1.5,1.5.7,0,.3,0,.7-.2,1-.1.4-.3.6-.5.8-.9-.4-1.7-.6-2.4-.6s-.4,0-.5.2c-.1.1-.2.2-.2.4,0,.3.2.5.6.6l1,.4h0Z"/>
      <path id="Path25" class="cls-2" d="M19,19.9c0-.5,0-1-.2-1.4-.2-.4-.4-.8-.7-1.1-.3-.3-.7-.6-1.1-.7-.4-.2-.9-.4-1.5-.4s-1.2.3-1.7.5c-.5.2-.9.5-1.2.9-.3.4-.5.8-.7,1.4-.2.5-.2,1.1-.2,1.7s0,1.2.2,1.8c.1.5.3,1,.6,1.4.3.4.7.7,1.2.9.5.2,1.1.4,1.8.4,1.3,0,2.4-.4,3.3-1,0-.6-.3-1.2-.7-1.5-.5.2-.9.3-1.2.4-.4,0-.7.1-.9.1-.5,0-.9-.1-1.2-.4-.2-.3-.4-.6-.4-1.1h4.4c.1-.5.2-1.1.2-1.8ZM14.3,20c0-.6.1-1.2.3-1.4.2-.3.4-.4.8-.4s.6.1.8.4c.2.3.3.8.3,1.2v.2s-2.2,0-2.2,0h0Z"/>
      <g id="Group1">
        <path class="cls-2" d="M38.7,21.1c-.5.4-.8,1-.8,1.8v2.9c0,1-.3,1.7-1,2.2-.7.5-1.5.8-2.4.8h-.5v-1.5c.5-.1.7-.3.8-.5.3-.3.6-.8.6-1.5v-2.4c0-.8,0-1.4.4-1.9.3-.5.9-.8,1.7-1.2-.9-.4-1.6-1-1.9-1.7-.2-.4-.2-1-.2-1.7v-2.2c0-.7-.2-1.2-.5-1.5-.2-.2-.4-.3-.9-.4v-1.4c.6,0,1,0,1.3,0,.6,0,1,.3,1.5.6.4.4.8.8,1,1.4.1.3.1.7.1,1v2.5c0,.9.3,1.5.7,2,.3.2.6.5,1.2.7v1.1c-.5.1-.9.4-1.2.6h0Z"/>
        <path class="cls-1" d="M34.7,28.9h-.6v-1.6h0c.4-.2.6-.3.8-.5.4-.3.6-.8.6-1.4v-2.4c0-.9,0-1.5.4-1.9.3-.4.8-.8,1.5-1.1-.8-.4-1.4-1-1.7-1.6-.2-.4-.2-1-.2-1.7v-2.2c0-.8-.3-1.2-.5-1.4-.2-.2-.4-.3-.9-.4h0v-1.6h.1c.4,0,.7,0,.9,0,.1,0,.2,0,.4,0,.6,0,1.1.3,1.5.7.5.4.8.9,1,1.5.1.4.1.7.1,1v2.5c0,.8.3,1.5.7,2,.4.3.8.5,1.1.7v1.1c-.5.1-.9.4-1.2.6-.5.4-.8,1-.8,1.8v2.9c0,1-.3,1.7-1,2.2-.6.5-1.5.7-2.4.7h0Z"/>
      </g>
    </g>
  </g>
</svg>
