<?xml version="1.0" encoding="UTF-8"?>
<svg xmlns="http://www.w3.org/2000/svg" version="1.1" viewBox="0 0 40 40">
  <defs>
    <style>
      .cls-1 {
        fill: #ebebeb;
      }

      .cls-2 {
        fill: #f16529;
      }

      .cls-3 {
        fill: #e44d26;
      }

      .cls-4 {
        fill: #fff;
      }
    </style>
  </defs>
  <!-- Generator: Adobe Illustrator 28.7.1, SVG Export Plug-In . SVG Version: 1.2.0 Build 142)  -->
  <g>
    <g id="Capa_1">
      <path d="M8.5,0h1.8v1.8h1.7V0h1.8v5.4h-1.8v-1.8h-1.6v1.8h-1.8M16.1,1.8h-1.6V0h5v1.8h-1.6v3.6h-1.8M20.3,0h1.9l1.2,1.9,1.2-1.9h1.9v5.4h-1.8v-2.7l-1.3,1.9-1.3-1.9v2.7h-1.8M27.2,0h1.8v3.6h2.5v1.8h-4.3"/>
      <path class="cls-3" d="M8.4,36.8L5.8,7.9h28.3l-2.6,28.9-11.6,3.2"/>
      <path class="cls-2" d="M20,37.5V10.2h11.6l-2.2,24.7"/>
      <path class="cls-1" d="M11.1,13.8h8.9v3.5h-5l.3,3.6h4.7v3.5h-7.9M12.2,26.3h3.6l.2,2.8,4,1.1v3.7l-7.3-2"/>
      <path class="cls-4" d="M28.9,13.8h-8.9v3.5h8.6M28.2,21h-8.2v3.5h4.4l-.4,4.6-4,1.1v3.7l7.3-2"/>
    </g>
  </g>
</svg>