<?xml version="1.0" encoding="UTF-8"?>
<svg xmlns="http://www.w3.org/2000/svg" version="1.1" viewBox="0 0 40 40">
  <defs>
    <style>
      .cls-1 {
        fill: #ffdf00;
      }
    </style>
  </defs>
  <!-- Generator: Adobe Illustrator 28.7.1, SVG Export Plug-In . SVG Version: 1.2.0 Build 142)  -->
  <g>
    <g id="Capa_1">
      <g>
        <path class="cls-1" d="M0,0h40v40H0V0Z"/>
        <path d="M26.9,31.3c.8,1.3,1.9,2.3,3.7,2.3s2.6-.8,2.6-1.9-1-1.7-2.7-2.5l-.9-.4c-2.7-1.2-4.5-2.6-4.5-5.7s2.1-5,5.5-5,4.1.8,5.3,3l-2.9,1.9c-.6-1.2-1.3-1.6-2.4-1.6s-1.8.7-1.8,1.6.7,1.6,2.3,2.3l.9.4c3.2,1.4,5,2.8,5,5.9s-2.7,5.2-6.2,5.2-5.7-1.7-6.8-3.8l3.1-1.8ZM13.6,31.6c.6,1,1.1,1.9,2.4,1.9s2-.5,2-2.4v-12.8h3.8v12.8c0,3.9-2.3,5.7-5.6,5.7s-4.8-1.6-5.6-3.4l3.1-1.9Z"/>
      </g>
    </g>
  </g>
</svg>